Coordinates
version=1
nRows=11
nColumns=40
inDegrees=yes

Units are S.I. units (second, meters, Newtons, ...)
Angles are in degrees.

endheader
time	pelvis_tilt	pelvis_list	pelvis_rotation	pelvis_tx	pelvis_ty	pelvis_tz	hip_flexion_r	hip_adduction_r	hip_rotation_r	knee_angle_r	knee_angle_r_beta	ankle_angle_r	subtalar_angle_r	mtp_angle_r	hip_flexion_l	hip_adduction_l	hip_rotation_l	knee_angle_l	knee_angle_l_beta	ankle_angle_l	subtalar_angle_l	mtp_angle_l	lumbar_extension	lumbar_bending	lumbar_rotation	arm_flex_r	arm_add_r	arm_rot_r	elbow_flex_r	pro_sup_r	wrist_flex_r	wrist_dev_r	arm_flex_l	arm_add_l	arm_rot_l	elbow_flex_l	pro_sup_l	wrist_flex_l	wrist_dev_l
     14.59750000	     -1.13245156	     -4.98531318	      0.04977956	      0.98552313	      0.92471729	      0.58266743	     12.51066248	      5.33909583	    -12.36428993	     23.48718340	     23.48718340	     14.24745835	     -5.78144592	     -4.06816223	     24.03617468	    -16.04893709	     -3.18359928	     50.75079543	     50.75079543	     18.06117539	    -19.55300820	     22.55530742	    -11.28028500	      6.97212213	      1.89690013	     17.49641300	    -17.13845565	    -14.34087291	     52.09434462	     45.55598535	      0.00000000	      0.00000000	      2.81975246	     -8.63554524	      1.26820205	     30.88969446	     45.89996186	      0.00000000	      0.00000000
     14.61757143	     -1.17977874	     -4.80888251	      0.61995088	      0.98212523	      0.92377998	      0.58221498	     12.64306338	      5.11254884	    -12.41108003	     23.97353366	     23.97353366	     14.63213326	     -6.57645558	     -4.10696514	     25.04292022	    -15.40475145	     -2.54418493	     48.59268791	     48.59268791	     17.97648697	    -19.52093990	     22.40875554	    -11.45884356	      6.72379987	      2.05037319	     19.58715028	    -17.23449701	    -14.30162152	     53.37757246	     45.52007865	      0.00000000	      0.00000000	      1.00465707	     -8.11625751	      1.71266688	     29.57073750	     45.80686325	      0.00000000	      0.00000000
     14.63764286	     -1.29626480	     -4.72532999	      1.22033726	      0.97859262	      0.92292820	      0.58164933	     12.86458685	      4.98796240	    -12.45363380	     24.46612503	     24.46612503	     14.94051063	     -7.50551418	     -4.03531350	     26.04920803	    -14.76725792	     -1.75156679	     46.31412901	     46.31412901	     17.60319053	    -19.47831598	     21.95014511	    -11.57694616	      6.58803953	      1.72788867	     21.83777002	    -16.86745664	    -13.92311338	     55.10301093	     45.45557679	      0.00000000	      0.00000000	     -0.72285697	     -7.85347648	      2.44736219	     27.80419171	     45.66889205	      0.00000000	      0.00000000
     14.65771429	     -1.46094837	     -4.76232634	      1.80282003	      0.97508005	      0.92236105	      0.58081010	     12.91390263	      4.95022020	    -12.77351287	     24.54609675	     24.54609675	     15.13416657	     -7.85743013	     -4.05838841	     27.08708752	    -14.17563617	     -0.82300073	     44.13119312	     44.13119312	     17.37098421	    -19.37641100	     22.01924397	    -11.61819464	      6.57581703	      2.56914378	     23.64677703	    -17.53820213	    -14.00401077	     55.92690813	     45.44033059	      0.00000000	      0.00000000	     -2.09840676	     -7.45064232	      2.60033673	     27.21350794	     45.62159587	      0.00000000	      0.00000000
     14.67778571	     -1.64079765	     -4.53332040	      2.46254230	      0.97158521	      0.92222325	      0.57966176	     12.87872856	      4.65308772	    -12.92748348	     24.47067867	     24.47067867	     15.31168376	     -8.44192759	     -3.93856277	     27.87300163	    -13.28136054	     -0.08358415	     41.66030632	     41.66030632	     15.88985232	    -19.33710431	     19.48321109	    -11.69364019	      6.25938541	      2.10254370	     25.55861648	    -17.66425275	    -12.14464655	     59.27714890	     45.27696022	      0.00000000	      0.00000000	     -3.57129004	     -7.43474238	      5.20407867	     25.52270012	     45.16613330	      0.00000000	      0.00000000
     14.69785714	     -1.88361383	     -4.42136128	      3.10181647	      0.96814598	      0.92243369	      0.57832758	     12.72405133	      4.44476162	    -13.34607545	     24.05639196	     24.05639196	     15.35270495	     -8.55593695	     -3.93289786	     28.73066017	    -12.42888787	      0.83738318	     39.44706342	     39.44706342	     15.32201549	    -19.21476319	     19.40756356	    -11.67948177	      6.05731497	      2.11648216	     27.70984586	    -17.64211276	    -12.21193392	     60.96638434	     45.23567674	      0.00000000	      0.00000000	     -5.04124045	     -7.27541960	      5.64923840	     25.08889895	     45.06595320	      0.00000000	      0.00000000
     14.71792857	     -2.16273171	     -4.36235388	      3.73854391	      0.96488451	      0.92292440	      0.57686914	     12.40662863	      4.31626915	    -13.81577003	     23.25482717	     23.25482717	     14.99409513	     -8.63805436	     -4.73152143	     29.42661751	    -11.68347217	      1.60633134	     37.11869101	     37.11869101	     13.97436889	    -19.04458916	     17.27691691	    -11.61605291	      5.91662090	      2.51394364	     29.29216741	    -18.12061260	    -12.01388311	     63.57827218	     45.23321705	      0.00000000	      0.00000000	     -6.66025637	     -7.97287841	     10.86174079	     26.24226130	     44.28732711	      0.00000000	      0.00000000
     14.73800000	     -2.47813004	     -4.29755016	      4.35850508	      0.96178230	      0.92371416	      0.57519081	     12.01366626	      4.16413852	    -14.39263783	     22.30102821	     22.30102821	     14.88261193	     -8.28664045	     -4.63581485	     30.07321364	    -10.89868281	      2.41755095	     34.98460799	     34.98460799	     13.37085067	    -18.77199437	     17.19423642	    -11.49321267	      5.72576881	      2.55264972	     31.33054486	    -18.24720274	    -11.96117479	     65.37988741	     45.18419213	      0.00000000	      0.00000000	     -7.82012060	     -7.85793749	     10.98968461	     26.14574669	     44.26420515	      0.00000000	      0.00000000
     14.75807143	     -2.82496765	     -4.25541861	      4.97200722	      0.95891466	      0.92465109	      0.57341230	     11.52703244	      4.06422947	    -14.98759518	     21.13153241	     21.13153241	     14.69904132	     -7.87750201	     -4.57167715	     30.57040882	    -10.19259621	      3.09731648	     32.85295202	     32.85295202	     12.67567981	    -18.37593117	     16.91615865	    -11.27876208	      5.54387202	      2.69160854	     33.19591268	    -18.44267633	    -11.84776391	     67.13338335	     45.13344055	      0.00000000	      0.00000000	     -8.81957266	     -7.83008768	     11.06480649	     26.26717831	     44.24634810	      0.00000000	      0.00000000
     14.77814286	     -3.13225502	     -4.30200526	      5.52889591	      0.95637815	      0.92543468	      0.57157651	     10.93763910	      4.04168522	    -15.75842207	     19.86690603	     19.86690603	     14.24521643	     -7.18659012	     -5.47276509	     30.83759998	     -9.74530754	      3.39655272	     30.70243079	     30.70243079	     11.23880040	    -17.76813466	     14.17039617	    -11.18450041	      5.44186846	      2.96458456	     34.54622931	    -19.08834809	    -11.18998078	     70.45863964	     45.02986453	      0.00000000	      0.00000000	    -10.09063925	     -8.05626453	     11.29339099	     28.00473614	     44.24363442	      0.00000000	      0.00000000
     14.79821429	     -3.41305104	     -4.39823335	      6.06834311	      0.95415177	      0.92628964	      0.56971259	     10.23670134	      4.16962862	    -16.26991366	     18.45768838	     18.45768838	     13.95383543	     -6.75507510	     -5.39977841	     31.00898609	     -9.38390211	      3.66068228	     28.84007633	     28.84007633	     10.73869725	    -16.89021676	     13.92444853	    -10.98604234	      5.35387816	      3.05714169	     36.45635704	    -19.17270941	    -11.19726281	     71.87324193	     44.99884437	      0.00000000	      0.00000000	    -10.73087353	     -8.06780167	     11.44675708	     28.11231528	     44.22849908	      0.00000000	      0.00000000
